<svg width="1200" height="1200" viewBox="0 0 1200 1200" fill="none" xmlns="http://www.w3.org/2000/svg">
<path d="M600 1200C718.669 1200 834.673 1164.81 933.342 1098.88C1032.01 1032.95 1108.91 939.246 1154.33 829.61C1199.74 719.975 1211.62 599.335 1188.47 482.946C1165.32 366.557 1108.18 259.648 1024.26 175.736C940.352 91.8247 833.443 34.6802 717.054 11.5291C600.665 -11.622 480.026 0.259974 370.39 45.6725C260.754 91.0851 167.047 167.989 101.118 266.658C35.1894 365.328 0 481.331 0 600C0 759.13 63.2141 911.742 175.736 1024.26C288.258 1136.79 440.87 1200 600 1200Z" fill="#0052FF"/>
<path fill-rule="evenodd" clip-rule="evenodd" d="M598.588 1022.54C831.947 1022.54 1021.12 833.36 1021.12 600C1021.12 366.64 831.947 177.465 598.588 177.465C377.203 177.465 195.585 347.722 177.527 564.442H804.54V634.801H177.465C195.162 851.881 376.946 1022.54 598.588 1022.54Z" fill="white"/>
</svg>
